# xmcd CD database file
#
# Track frame offsets:
#	150
#	19857
#	39650
#
# Disc length: 791 seconds
#
# Revision: 0
# Processed by: cddbd v1.5.1PL0 Copyright (c) Steve Scherf et al.
# Submitted via: CDex 1.51
#
DISCID=1d031503
DTITLE=鈴木結女 - 空の名前
DYEAR=1995
DGENRE=JPop
TTITLE0=空の名前
TTITLE1=HOMEPLASE
TTITLE2=空の名前（オリジナル・カラオケ）
EXTD=YEAR: 1995
EXTT0=
EXTT1=
EXTT2=
PLAYORDER=
